# Blender 4.0.2
# www.blender.org
mtllib belt.mtl
o Cube
v -2.950000 -0.030000 -1.400000
v -2.950000 -0.080000 -1.400000
v 2.950000 -0.030000 -1.400000
v 2.950000 -0.080000 -1.400000
v -2.950000 -0.030000 1.500000
v -2.950000 -0.080000 1.500000
v 2.950000 -0.030000 1.500000
v 2.950000 -0.080000 1.500000
v -0.000000 -0.080000 2.466667
v 0.000000 -0.030000 -0.433333
v -0.000000 -0.030000 2.466667
v 0.000000 -0.080000 -0.433333
vn -0.0000 1.0000 -0.0000
vn 1.0000 -0.0000 -0.0000
vn -0.3114 -0.0000 0.9503
vn -0.0000 -1.0000 -0.0000
vn -0.3114 -0.0000 -0.9503
vn -1.0000 -0.0000 -0.0000
vn 0.3114 -0.0000 -0.9503
vn 0.3114 -0.0000 0.9503
vt 0.192481 0.134963
vt 0.192481 0.480075
vt 0.019925 0.365037
vt 0.019925 0.019925
vt 0.750000 0.480075
vt 0.404888 0.480075
vt 0.404888 0.134963
vt 0.750000 0.134963
vt 0.365037 0.980075
vt 0.019925 0.980075
vt 0.019925 0.865037
vt 0.365037 0.865037
vt 0.577444 0.519925
vt 0.577444 0.865037
vt 0.404888 0.980075
vt 0.404888 0.634963
vt 0.789850 0.365037
vt 0.789850 0.019925
vt 0.904888 0.019925
vt 0.904888 0.365037
vt 0.019925 0.519925
vt 0.365037 0.519925
vt 0.789850 0.750000
vt 0.789850 0.404888
vt 0.904888 0.404888
vt 0.904888 0.750000
vt 0.750000 0.634963
vt 0.750000 0.980075
vt 0.404888 0.019925
vt 0.750000 0.019925
vt 0.365037 0.019925
vt 0.365037 0.365037
s 0
usemtl Material
f 10/1/1 11/2/1 7/3/1 3/4/1
f 4/5/2 3/6/2 7/7/2 8/8/2
f 9/9/3 11/10/3 5/11/3 6/12/3
f 9/13/4 12/14/4 4/15/4 8/16/4
f 12/17/5 10/18/5 3/19/5 4/20/5
f 6/12/6 5/11/6 1/21/6 2/22/6
f 2/23/7 1/24/7 10/25/7 12/26/7
f 6/27/4 2/28/4 12/14/4 9/13/4
f 8/8/8 7/7/8 11/29/8 9/30/8
f 1/31/1 5/32/1 11/2/1 10/1/1
o Cube.002
v -2.950000 -0.030000 -4.400001
v -2.950000 -0.080000 -4.400001
v 2.950000 -0.030000 -4.400000
v 2.950000 -0.080000 -4.400000
v -2.950000 -0.030000 -1.500000
v -2.950000 -0.080000 -1.500000
v 2.950000 -0.030000 -1.500000
v 2.950000 -0.080000 -1.500000
v -0.000000 -0.080000 -0.533333
v 0.000000 -0.030000 -3.433333
v -0.000000 -0.030000 -0.533333
v 0.000000 -0.080000 -3.433333
vn -0.0000 1.0000 -0.0000
vn 1.0000 -0.0000 -0.0000
vn -0.3114 -0.0000 0.9503
vn -0.0000 -1.0000 -0.0000
vn -0.3114 -0.0000 -0.9503
vn -1.0000 -0.0000 -0.0000
vn 0.3114 -0.0000 -0.9503
vn 0.3114 -0.0000 0.9503
vt 0.192481 0.134963
vt 0.192481 0.480075
vt 0.019925 0.365037
vt 0.019925 0.019925
vt 0.750000 0.480075
vt 0.404888 0.480075
vt 0.404888 0.134963
vt 0.750000 0.134963
vt 0.365037 0.980075
vt 0.019925 0.980075
vt 0.019925 0.865037
vt 0.365037 0.865037
vt 0.577444 0.519925
vt 0.577444 0.865037
vt 0.404888 0.980075
vt 0.404888 0.634963
vt 0.789850 0.365037
vt 0.789850 0.019925
vt 0.904888 0.019925
vt 0.904888 0.365037
vt 0.019925 0.519925
vt 0.365037 0.519925
vt 0.789850 0.750000
vt 0.789850 0.404888
vt 0.904888 0.404888
vt 0.904888 0.750000
vt 0.750000 0.634963
vt 0.750000 0.980075
vt 0.404888 0.019925
vt 0.750000 0.019925
vt 0.365037 0.019925
vt 0.365037 0.365037
s 0
usemtl Material.002
f 22/33/9 23/34/9 19/35/9 15/36/9
f 16/37/10 15/38/10 19/39/10 20/40/10
f 21/41/11 23/42/11 17/43/11 18/44/11
f 21/45/12 24/46/12 16/47/12 20/48/12
f 24/49/13 22/50/13 15/51/13 16/52/13
f 18/44/14 17/43/14 13/53/14 14/54/14
f 14/55/15 13/56/15 22/57/15 24/58/15
f 18/59/12 14/60/12 24/46/12 21/45/12
f 20/40/16 19/39/16 23/61/16 21/62/16
f 13/63/9 17/64/9 23/34/9 22/33/9
o Cube.001
v -2.950000 -0.030000 1.600000
v -2.950000 -0.080000 1.600000
v 2.950000 -0.030000 1.600000
v 2.950000 -0.080000 1.600000
v -2.950000 -0.030000 4.500000
v -2.950000 -0.080000 4.500000
v 2.950000 -0.030000 4.500000
v 2.950000 -0.080000 4.500000
v -0.000000 -0.080000 4.516667
v 0.000000 -0.030000 2.566667
v -0.000000 -0.030000 4.516667
v 0.000000 -0.080000 2.566667
vn -0.0000 1.0000 -0.0000
vn 1.0000 -0.0000 -0.0000
vn -0.0056 -0.0000 1.0000
vn -0.0000 -1.0000 -0.0000
vn -0.3114 -0.0000 -0.9503
vn -1.0000 -0.0000 -0.0000
vn 0.3114 -0.0000 -0.9503
vn 0.0056 -0.0000 1.0000
vt 0.166667 0.117205
vt 0.166667 0.316757
vt 0.018282 0.315051
vt 0.018282 0.018282
vt 0.018282 0.650090
vt 0.018282 0.353321
vt 0.315051 0.353321
vt 0.315051 0.650090
vt 0.500000 0.650090
vt 0.500000 0.353321
vt 0.648384 0.353321
vt 0.648384 0.650090
vt 0.500000 0.018282
vt 0.500000 0.217834
vt 0.351616 0.316757
vt 0.351616 0.019988
vt 0.684949 0.650090
vt 0.684949 0.353321
vt 0.783872 0.353321
vt 0.783872 0.650090
vt 0.684949 0.315051
vt 0.684949 0.018282
vt 0.981718 0.018282
vt 0.981718 0.315051
vt 0.820436 0.650090
vt 0.820436 0.353321
vt 0.919359 0.353321
vt 0.919359 0.650090
vt 0.648384 0.019988
vt 0.648384 0.316757
vt 0.351616 0.650090
vt 0.351616 0.353321
vt 0.315051 0.018282
vt 0.315051 0.315051
s 0
usemtl Material.003
f 34/65/17 35/66/17 31/67/17 27/68/17
f 28/69/18 27/70/18 31/71/18 32/72/18
f 33/73/19 35/74/19 29/75/19 30/76/19
f 33/77/20 36/78/20 28/79/20 32/80/20
f 36/81/21 34/82/21 27/83/21 28/84/21
f 30/85/22 29/86/22 25/87/22 26/88/22
f 26/89/23 25/90/23 34/91/23 36/92/23
f 30/93/20 26/94/20 36/78/20 33/77/20
f 32/95/24 31/96/24 35/74/24 33/73/24
f 25/97/17 29/98/17 35/66/17 34/65/17
o Cube.003
v -2.950000 -0.030000 -4.500000
v -2.950000 -0.080000 -4.500000
v 2.950000 -0.030000 -4.500000
v 2.950000 -0.080000 -4.500000
v -2.950000 -0.030000 -4.500000
v -2.950000 -0.080000 -4.500000
v 2.950000 -0.030000 -4.500000
v 2.950000 -0.080000 -4.500000
v -0.000000 -0.080000 -3.533333
v -0.000000 -0.030000 -4.499137
v -0.000000 -0.030000 -3.533333
v -0.000000 -0.080000 -4.499137
vn -0.0000 1.0000 -0.0000
vn 1.0000 -0.0000 -0.0000
vn -0.3114 -0.0000 0.9503
vn -0.0000 -1.0000 -0.0000
vn -0.0003 -0.0000 -1.0000
vn -1.0000 -0.0000 -0.0000
vn 0.0003 -0.0000 -1.0000
vn 0.3114 -0.0000 0.9503
vt 0.750000 0.016526
vt 0.750000 0.172129
vt 0.516387 0.016387
vt 0.516387 0.016387
vt 0.016387 0.983613
vt 0.016387 0.516387
vt 0.016387 0.516387
vt 0.016387 0.983613
vt 0.983613 0.360645
vt 0.516387 0.360645
vt 0.516387 0.204903
vt 0.983613 0.204903
vt 0.750000 0.393418
vt 0.750000 0.549022
vt 0.516387 0.549160
vt 0.250000 0.483613
vt 0.250000 0.016387
vt 0.483613 0.016387
vt 0.483613 0.483613
vt 0.516387 0.204903
vt 0.983613 0.204902
vt 0.016387 0.483613
vt 0.016387 0.016387
vt 0.983613 0.549160
vt 0.983613 0.549160
vt 0.297155 0.516387
vt 0.297155 0.983613
vt 0.983613 0.016387
vt 0.983613 0.016387
s 0
usemtl Material.004
f 46/99/25 47/100/25 43/101/25 39/102/25
f 40/103/26 39/104/26 43/105/26 44/106/26
f 45/107/27 47/108/27 41/109/27 42/110/27
f 45/111/28 48/112/28 40/113/28 44/113/28
f 48/114/29 46/115/29 39/116/29 40/117/29
f 42/110/30 41/109/30 37/118/30 38/119/30
f 38/120/31 37/121/31 46/115/31 48/114/31
f 42/122/28 38/123/28 48/112/28 45/111/28
f 44/106/32 43/105/32 47/124/32 45/125/32
f 37/126/25 41/127/25 47/100/25 46/99/25
o Cube.004
v -5.000000 -0.100000 4.500000
v -5.000000 0.900000 4.500000
v -5.000000 -0.100000 -4.500000
v -5.000000 0.900000 -4.500000
v -3.000000 -0.100000 4.500000
v -3.000000 0.900000 4.500000
v -3.000000 -0.100000 -4.500000
v -3.000000 0.900000 -4.500000
vn -1.0000 -0.0000 -0.0000
vn -0.0000 -0.0000 -1.0000
vn 1.0000 -0.0000 -0.0000
vn -0.0000 -0.0000 1.0000
vn -0.0000 -1.0000 -0.0000
vn -0.0000 1.0000 -0.0000
vt 0.017857 0.315476
vt 0.017857 0.017857
vt 0.315476 0.017857
vt 0.315476 0.315476
vt 0.017857 0.648810
vt 0.017857 0.351191
vt 0.315476 0.351191
vt 0.315476 0.648810
vt 0.648810 0.315476
vt 0.351191 0.315476
vt 0.351191 0.017857
vt 0.648810 0.017857
vt 0.648810 0.648810
vt 0.351190 0.648810
vt 0.351190 0.351191
vt 0.648809 0.351191
vt 0.315476 0.982143
vt 0.017857 0.982143
vt 0.017857 0.684524
vt 0.315476 0.684524
vt 0.648810 0.982143
vt 0.351191 0.982143
vt 0.351191 0.684524
vt 0.648810 0.684524
s 0
usemtl Material.001
f 49/128/33 50/129/33 52/130/33 51/131/33
f 51/132/34 52/133/34 56/134/34 55/135/34
f 55/136/35 56/137/35 54/138/35 53/139/35
f 53/140/36 54/141/36 50/142/36 49/143/36
f 51/144/37 55/145/37 53/146/37 49/147/37
f 56/148/38 52/149/38 50/150/38 54/151/38
o Cube.005
v 3.000000 -0.100000 4.500000
v 3.000000 0.900000 4.500000
v 3.000000 -0.100000 -4.500000
v 3.000000 0.900000 -4.500000
v 5.000000 -0.100000 4.500000
v 5.000000 0.900000 4.500000
v 5.000000 -0.100000 -4.500000
v 5.000000 0.900000 -4.500000
vn -1.0000 -0.0000 -0.0000
vn -0.0000 -0.0000 -1.0000
vn 1.0000 -0.0000 -0.0000
vn -0.0000 -0.0000 1.0000
vn -0.0000 -1.0000 -0.0000
vn -0.0000 1.0000 -0.0000
vt 0.017857 0.315476
vt 0.017857 0.017857
vt 0.315476 0.017857
vt 0.315476 0.315476
vt 0.017857 0.648810
vt 0.017857 0.351191
vt 0.315476 0.351191
vt 0.315476 0.648810
vt 0.648810 0.315476
vt 0.351191 0.315476
vt 0.351191 0.017857
vt 0.648810 0.017857
vt 0.648810 0.648810
vt 0.351190 0.648810
vt 0.351190 0.351191
vt 0.648809 0.351191
vt 0.315476 0.982143
vt 0.017857 0.982143
vt 0.017857 0.684524
vt 0.315476 0.684524
vt 0.648810 0.982143
vt 0.351191 0.982143
vt 0.351191 0.684524
vt 0.648810 0.684524
s 0
usemtl Material.005
f 57/152/39 58/153/39 60/154/39 59/155/39
f 59/156/40 60/157/40 64/158/40 63/159/40
f 63/160/41 64/161/41 62/162/41 61/163/41
f 61/164/42 62/165/42 58/166/42 57/167/42
f 59/168/43 63/169/43 61/170/43 57/171/43
f 64/172/44 60/173/44 58/174/44 62/175/44
o Cube.006
v -5.000000 -2.100000 4.500000
v -5.000000 -0.100000 4.500000
v -5.000000 -2.100000 -4.500000
v -5.000000 -0.100000 -4.500000
v 5.000000 -2.100000 4.500000
v 5.000000 -0.100000 4.500000
v 5.000000 -2.100000 -4.500000
v 5.000000 -0.100000 -4.500000
vn -1.0000 -0.0000 -0.0000
vn -0.0000 -0.0000 -1.0000
vn 1.0000 -0.0000 -0.0000
vn -0.0000 -0.0000 1.0000
vn -0.0000 -1.0000 -0.0000
vn -0.0000 1.0000 -0.0000
vt 0.017857 0.315476
vt 0.017857 0.017857
vt 0.315476 0.017857
vt 0.315476 0.315476
vt 0.017857 0.648810
vt 0.017857 0.351191
vt 0.315476 0.351191
vt 0.315476 0.648810
vt 0.648810 0.315476
vt 0.351191 0.315476
vt 0.351191 0.017857
vt 0.648810 0.017857
vt 0.648810 0.648810
vt 0.351190 0.648810
vt 0.351190 0.351191
vt 0.648809 0.351191
vt 0.315476 0.982143
vt 0.017857 0.982143
vt 0.017857 0.684524
vt 0.315476 0.684524
vt 0.648810 0.982143
vt 0.351191 0.982143
vt 0.351191 0.684524
vt 0.648810 0.684524
s 0
usemtl Material.006
f 65/176/45 66/177/45 68/178/45 67/179/45
f 67/180/46 68/181/46 72/182/46 71/183/46
f 71/184/47 72/185/47 70/186/47 69/187/47
f 69/188/48 70/189/48 66/190/48 65/191/48
f 67/192/49 71/193/49 69/194/49 65/195/49
f 72/196/50 68/197/50 66/198/50 70/199/50
